<svg xmlns="http://www.w3.org/2000/svg" id="Layer_1" data-name="Layer 1" viewBox="0 0 88 48"><defs><clipPath id="clippath"><path fill="none" stroke-width="0" d="M0 0h140v48H0z"/></clipPath><style>.cls-3,.cls-4{stroke-width:0}.cls-3{fill:#2abaea}.cls-4{fill:#334b66}</style></defs><g clip-path="url(#clippath)"><path d="M58.5338 19.4299c-3.2683-.0332-4.8112 1.8581-4.8112 1.8581-.9954 1.0618-.3484 2.4885.6139 2.5881 1.3935.1493 1.3935-1.0286 3.5337-1.5429 1.8913-.4645 1.9742 1.294 1.9742 1.294-8.0463-.1991-7.6647 6.5532-4.9273 7.98 2.6213 1.377 5.0767-.365 5.0767-.365s.0995.9291 1.3936.9291c1.4931 0 1.4931-1.4766 1.4931-1.4766v-6.5698c-.0996-4.8277-4.3467-4.695-4.3467-4.695Zm-.6304 9.5062s-2.107.4314-2.0904-1.0783c.0166-1.5098 3.8324-1.4102 4.2305-1.2941 0 0 .1162 1.7088-2.1401 2.3724Zm26.6136.5779-3.2849-4.9439 2.4056-2.2729s1.1115-1.0286.1991-2.0572c-1.0121-1.1281-2.2232-.0166-2.2232-.0166l-3.036 2.8204v-5.6407c0-.813-.6636-1.46-1.4599-1.46-.813 0-1.46.6636-1.46 1.46v13.2888c0 .813.6636 1.46 1.46 1.46.8129 0 1.4599-.6636 1.4599-1.46v-3.5503l.5475-.5475 2.9697 4.6453s.9622 1.6093 2.389.5807c1.0949-.7632.0332-2.3061.0332-2.3061Zm-10.4698-5.4056c0-4.7946-3.9983-5.4748-6.7191-3.9485v.0166c-.2654-.7797-1.1115-1.1945-1.8913-.9291-.6138.2157-1.012.7798-1.012 1.4268v10.004c0 .8295.6636 1.4931 1.4931 1.4931a1.487 1.487 0 0 0 1.4932-1.4931l-.0166-6.7523a5.7461 5.7461 0 0 1 .9456-.8461c1.4102-.9954 2.7374-.647 2.7374 1.0452l.0332 6.5864c.0332.8129.7134 1.4599 1.5263 1.4267.7798-.0331 1.3936-.647 1.4268-1.4267l-.0166-6.603Z" class="cls-4"/><path d="M30.978 32.3494a2.6536 2.6536 0 0 0 .3982-.9788l-3.3845-8.8427s-.6138-1.7088.7466-2.2231c1.4268-.5309 1.9577.8296 2.0572 1.1116l2.1402 5.6905 1.9576-5.6739s.5641-1.7586 2.1236-1.1448c1.294.5143.6304 2.2563.6304 2.2563s-2.0074 5.9228-3.683 10.2031c-.9954 2.5715-1.8581 2.8204-2.837 3.0526-1.3106.3152-3.7826.1659-3.7826-1.4599 0-1.2775 1.3107-1.3604 1.9079-1.3438.0332.0331 1.2609.1327 1.7254-.6471Zm-7.8636-14.8623-3.0858 8.5274-3.3678-8.4776s-.4977-1.6093-1.9079-1.6093c-1.6258 0-1.5761 1.2941-1.6092 1.6093-.0332.3152 0 13.2557 0 13.2557s-.0166 1.3604 1.4765 1.3604c1.5263 0 1.4599-1.377 1.4599-1.377v-6.8352l2.4886 6.8352s.365 1.3438 1.5097 1.3272c1.1447-.0166 1.4766-1.3272 1.4766-1.3272l2.0738-6.8187v6.8187s-.0001 1.377 1.5097 1.377c1.4599 0 1.4599-1.377 1.4599-1.377V17.5369s0-1.6259-1.5761-1.6093c-1.3106.0166-1.8083 1.2775-1.9079 1.5595v.0498-.0498Z" class="cls-3"/><path d="M84.997 37.3775H39.7385l.0166.0166c-7.3993 8.6768-20.4393 9.7054-29.116 2.3061-8.6768-7.3993-9.722-20.4227-2.3227-29.0995 7.3993-8.6767 20.4393-9.722 29.1161-2.306.8461.73 1.6424 1.5097 2.3558 2.3724h4.1476C36.5864-.3489 21.6716-3.3186 10.6557 4.0475c-11.016 7.3661-13.9691 22.2809-6.603 33.2968 7.3661 11.016 22.2642 13.9691 33.2802 6.603 1.5595-1.0452 2.9863-2.2563 4.2637-3.6333l41.4261-.0332 1.9743-2.9033Z" class="cls-3"/><path d="M50.2737 23.4604c.0829-.1161 1.0783-.9124.9954-3.0692-.1659-4.3466-3.9319-4.2969-4.778-4.3301-1.3438-.0331-2.1568-.0165-4.6287 0-2.0904.0166-2.0738 1.9245-2.0738 1.9245v14.1682h7.0343c3.766 0 5.1596-2.0738 5.1596-4.9771s-1.7088-3.7163-1.7088-3.7163Zm-7.4491-4.3964h3.8822c.7797.0166 1.5926.4313 1.5926 1.5927 0 1.2111-.7134 1.5926-1.5926 1.5926h-3.8822V19.064Zm4.1642 10.2031h-4.1642v-3.9817h4.1642c1.012.0497 1.9908.5641 1.9908 1.9908 0 1.46-.8959 1.9909-1.9908 1.9909Z" class="cls-4"/></g></svg>