<svg xmlns="http://www.w3.org/2000/svg" data-name="Layer 1" viewBox="0 0 140 48"><path fill="#ff3b00" d="M28.5757 5.1304h21.1792V42.868H28.5757z"/><path fill="#fb0000" d="M29.9176 24c-.0066-7.3639 3.4022-14.3219 9.2442-18.8688C29.238-2.6028 14.9862-1.477 6.4227 7.7175c-8.5636 9.1945-8.5636 23.3705 0 32.565 8.5635 9.1944 22.8153 10.3203 32.7391 2.5863-5.8429-4.5462-9.252-11.5046-9.2442-18.8688Z"/><path fill="#fd8f03" d="M78.3168 24.0007c-.0003 9.188-5.291 17.5695-13.6255 21.5853-8.3346 4.0158-18.2499 2.9609-25.5355-2.7166 5.8375-4.5506 9.2456-11.506 9.2456-18.8687S44.9933 9.6825 39.1558 5.1319c7.2856-5.6775 17.2009-6.7324 25.5355-2.7166 8.3345 4.0158 13.6252 12.3973 13.6255 21.5854Z"/></svg>