<svg xmlns="http://www.w3.org/2000/svg" viewBox="0 0 48.464 48.4641"><defs><style>.cls-1{fill:none}.cls-2{fill:#a01813}</style></defs><g id="Layer_2" data-name="Layer 2"><g id="Layer_1-2" data-name="Layer 1"><path d="M29.1697 13.8028a.9027.9027 0 0 0-.6617-.3033h-8.5977a.9045.9045 0 0 0-.6623.3033 1.2284 1.2284 0 0 0-.3276.8469v7.2798h10.578v-7.2798a1.2277 1.2277 0 0 0-.3287-.8469Z" class="cls-1"/><path d="M29.1697 13.8028a.9027.9027 0 0 0-.6617-.3033h-8.5977a.9045.9045 0 0 0-.6623.3033 1.2284 1.2284 0 0 0-.3276.8469v7.2798h10.578v-7.2798a1.2277 1.2277 0 0 0-.3287-.8469Z" class="cls-1"/><path d="M28.508 13.4995h-8.5977a.9045.9045 0 0 0-.6623.3033 1.2284 1.2284 0 0 0-.3276.8469v7.2798h10.578v-7.2798a1.2277 1.2277 0 0 0-.3287-.8469.9027.9027 0 0 0-.6617-.3033Z" class="cls-1"/><path d="M28.508 13.4995h-8.5977a.9045.9045 0 0 0-.6623.3033 1.2284 1.2284 0 0 0-.3276.8469v7.2798h10.578v-7.2798a1.2277 1.2277 0 0 0-.3287-.8469.9027.9027 0 0 0-.6617-.3033Z" class="cls-1"/><path d="M33.2496 22.18v-7.5303a4.8341 4.8341 0 0 0-4.7416-4.9015h-8.5977a4.8347 4.8347 0 0 0-4.7419 4.9015v7.5481a3.368 3.368 0 0 0-2.0466 3.089v10.0715a3.3665 3.3665 0 0 0 3.3574 3.3573h15.5053a3.3665 3.3665 0 0 0 3.3573-3.3573V25.2867a3.3672 3.3672 0 0 0-2.0922-3.1067Zm-3.7513-.2505h-10.578v-7.2798a1.2284 1.2284 0 0 1 .3277-.8469.9045.9045 0 0 1 .6623-.3033h8.5977a.9027.9027 0 0 1 .6616.3033 1.2277 1.2277 0 0 1 .3287.8469Z" class="cls-1"/><path d="M33.2496 22.18v-7.5303a4.8341 4.8341 0 0 0-4.7416-4.9015h-8.5977a4.8347 4.8347 0 0 0-4.7419 4.9015v7.5481a3.368 3.368 0 0 0-2.0466 3.089v10.0715a3.3665 3.3665 0 0 0 3.3574 3.3573h15.5053a3.3665 3.3665 0 0 0 3.3573-3.3573V25.2867a3.3672 3.3672 0 0 0-2.0922-3.1067Zm-3.7513-.2505h-10.578v-7.2798a1.2284 1.2284 0 0 1 .3277-.8469.9045.9045 0 0 1 .6623-.3033h8.5977a.9027.9027 0 0 1 .6616.3033 1.2277 1.2277 0 0 1 .3287.8469Z" class="cls-1"/><path d="M33.048 22.3195v-7.5303a4.8339 4.8339 0 0 0-4.7416-4.9015h-8.5977a4.8344 4.8344 0 0 0-4.7419 4.9015v7.5478a3.368 3.368 0 0 0-2.0465 3.089v10.0714a3.3664 3.3664 0 0 0 3.3572 3.3573H31.783a3.3664 3.3664 0 0 0 3.3573-3.3573V25.426a3.3667 3.3667 0 0 0-2.0923-3.1065Zm-3.5497-.39h-10.578v-7.2798a1.2284 1.2284 0 0 1 .3277-.8469.9045.9045 0 0 1 .6623-.3033h8.5977a.9027.9027 0 0 1 .6616.3033 1.2277 1.2277 0 0 1 .3287.8469Z" class="cls-1"/><path d="M28.508 13.4995h-8.5977a.9045.9045 0 0 0-.6623.3033 1.2284 1.2284 0 0 0-.3276.8469v7.2798h10.578v-7.2798a1.2277 1.2277 0 0 0-.3287-.8469.9027.9027 0 0 0-.6617-.3033Z" class="cls-2"/><path d="M24.2318 0A24.232 24.232 0 1 0 48.464 24.2319 24.2345 24.2345 0 0 0 24.2318 0Zm10.9084 35.4974a3.3664 3.3664 0 0 1-3.3573 3.3573H16.2775a3.3664 3.3664 0 0 1-3.3572-3.3573V25.426a3.368 3.368 0 0 1 2.0465-3.089v-7.5478a4.8344 4.8344 0 0 1 4.7419-4.9015h8.5977a4.8339 4.8339 0 0 1 4.7415 4.9015v7.5303a3.3667 3.3667 0 0 1 2.0923 3.1065Z" class="cls-2"/></g></g></svg>