<svg xmlns="http://www.w3.org/2000/svg" xml:space="preserve" id="Layer_1" x="0" y="0" version="1.1" viewBox="0 0 70 40"><style>.st0{opacity:.3;fill:#00abee;enable-background:new}</style><g id="Stockholm-icons-_-Shopping-_-Credit-card" transform="translate(1036 80)"><path id="Combined-Shape" d="M-1023.8571-80h45.7142c3.1429 0 5.7143 2.5714 5.7143 5.7143v28.5714c0 3.1429-2.5714 5.7143-5.7143 5.7143h-45.7142c-3.1428 0-5.7143-2.5714-5.7143-5.7143v-28.5714c0-3.1429 2.5715-5.7143 5.7143-5.7143z" class="st0"/><path id="Rectangle-59" fill="#00abee" d="M-1029.5714-71.4286h57.1429v8.5714h-57.1429z"/><path id="Rectangle-59-Copy" d="M-986.7143-54.2857H-981c1.5714 0 2.8571 1.2857 2.8571 2.8571 0 1.5715-1.2857 2.8572-2.8571 2.8572h-5.7143c-1.5714 0-2.8571-1.2858-2.8571-2.8572 0-1.5714 1.2857-2.8571 2.8571-2.8571z" class="st0"/></g></svg>