<svg xmlns="http://www.w3.org/2000/svg" fill="none" viewBox="0 0 300 52"><path fill="#00ABEE" d="M54 14.7692h7.8531l7.5692 18.6578 7.38-18.6578h7.7585v26.9501h-6.5285V25.5115l-6.0554 16.1136h-5.2984l-5.9608-16.2078v16.2078H54V14.7692Zm55.066 26.8556h-6.528v-2.9212c-1.325 1.7904-3.5957 3.1097-6.4342 3.1097-4.92 0-8.3261-3.3923-8.3261-9.1405V20.2343h6.5284V31.919c0 2.9212 1.6085 4.5231 4.0685 4.5231 2.5544 0 4.1634-1.6019 4.1634-4.5231V20.2343h6.528v21.3905Zm3.217-28.2688h6.529v28.3636h-6.529V13.356ZM123.069 25.7h-2.649v-5.4654h2.649v-5.4654h6.529v5.4654h4.257v5.3712h-4.163v8.6693c0 1.225.568 1.7904 1.987 1.7904h2.366v5.5596h-3.312c-4.447 0-7.569-1.8846-7.569-7.4443V25.7h-.095Zm12.489-11.1192c0-1.9789 1.609-3.5808 3.88-3.5808 2.27 0 3.879 1.6019 3.879 3.5808 0 1.9788-1.609 3.4866-3.879 3.4866-2.366 0-3.88-1.602-3.88-3.4866Zm.568 5.6539h6.529v21.3905h-6.529V20.2347Z"/><path fill="#004A71" d="M155.806 41.9081c-5.771 0-10.408-2.827-10.597-8.3866h7.002c.189 2.0731 1.514 3.0154 3.311 3.0154 1.893 0 3.123-.9423 3.123-2.5443 0-4.9942-13.53-2.2615-13.436-11.8731 0-5.0885 4.163-8.0097 9.935-8.0097 5.866 0 9.935 2.9212 10.124 8.1039h-7.096c-.095-1.6962-1.325-2.7327-3.123-2.8269-1.608 0-2.744.7538-2.744 2.45 0 4.6173 13.341 2.5442 13.341 11.5904 0 4.7116-3.595 8.4809-9.84 8.4809Zm20.532-21.9559c3.217 0 5.393 1.4134 6.623 3.2981v-3.0154h6.528v21.3905h-6.528V38.61c-1.23 1.8846-3.406 3.2981-6.623 3.2981-5.204 0-9.462-4.2404-9.462-11.1193-.094-6.5962 4.163-10.8366 9.462-10.8366Zm1.892 5.6539c-2.46 0-4.636 1.7904-4.636 5.1827 0 3.3923 2.176 5.2769 4.636 5.2769s4.636-1.8846 4.636-5.2769c0-3.2981-2.176-5.1827-4.636-5.1827Zm12.773.0939v-5.4654h2.365v-.5654c0-5.5597 3.407-8.3866 10.03-8.1039v5.6539c-2.555-.1885-3.406.5654-3.406 2.8269v.1885h3.5v5.3712h-3.5v15.9251h-6.529V25.7h-2.46Zm23.559 16.2078c-6.244 0-10.88-4.2404-10.88-11.025 0-6.7847 4.447-11.0251 10.88-11.0251 6.245 0 10.692 4.1462 10.692 10.6481 0 .5654 0 1.2251-.095 1.8847H210.21c.189 2.8269 1.987 4.0519 4.069 4.0519 1.797 0 2.838-.9423 3.406-2.0731h7.001c-.851 4.3347-4.636 7.5385-10.124 7.5385Zm-4.257-13.0039h8.326c0-2.3558-1.798-3.675-3.974-3.675-2.271 0-3.974 1.225-4.352 3.675Zm30.182-8.9517c5.204 0 9.556 4.2404 9.556 11.025 0 6.6905-4.163 11.1193-9.556 11.1193-3.122 0-5.393-1.5077-6.623-3.298v12.833h-6.529V20.2349h6.529v3.0154c1.23-1.8846 3.501-3.2981 6.623-3.2981Zm-1.987 5.6539c-2.46 0-4.636 1.8846-4.636 5.2769 0 3.3923 2.176 5.277 4.636 5.277s4.731-1.8847 4.731-5.277-2.271-5.2769-4.731-5.2769Zm22.235-5.6539c3.217 0 5.393 1.4134 6.623 3.2981v-3.0154h6.528v21.3905h-6.528V38.61c-1.23 1.8846-3.406 3.2981-6.623 3.2981-5.204 0-9.462-4.2404-9.462-11.1193.095-6.5962 4.258-10.8366 9.462-10.8366Zm2.081 5.6539c-2.46 0-4.636 1.7904-4.636 5.1827 0 3.3923 2.176 5.2769 4.636 5.2769s4.636-1.8846 4.636-5.2769c0-3.2981-2.176-5.1827-4.636-5.1827Zm30.088-5.3718H300l-13.5 31.3972h-7l4.888-10.6663-8.799-20.6367h7.286l4.92 13.3809 5.109-13.4751Z"/><path fill="#00ABEE" d="M41 35.1667 0 1v41h41v-6.8333Z"/><path fill="#004A71" d="M41 0 21 16.3697 41 33V0Z"/></svg>