<svg xmlns="http://www.w3.org/2000/svg" xmlns:xlink="http://www.w3.org/1999/xlink" xml:space="preserve" id="Layer_1" x="0" y="0" version="1.1" viewBox="0 0 405.5 74.3"><style>.st3{enable-background:new}.st4{fill:#808b94}</style><path fill="none" stroke="#1d1d1b" stroke-linecap="round" stroke-miterlimit="10" d="M243.3 4.5V67"/><defs><path id="SVGID_1_" d="M-101.3-139.9h1254v792h-1254z"/></defs><clipPath id="SVGID_00000178193783671167306270000010633541264981371801_"><use xlink:href="#SVGID_1_" overflow="visible"/></clipPath><g clip-path="url(#SVGID_00000178193783671167306270000010633541264981371801_)"><path fill="#e30613" d="m87.8 56.8-1.1-.4c-1.4-.5-2.4-.9-2.4-2.2 0-1.1.9-1.7 2.7-1.7 1.2 0 2.3.2 3.4.6.1-.5.2-.9.2-1.4-1.2-.4-2.4-.6-3.7-.6-2.6 0-4.2 1.1-4.2 3.2 0 1.9 1.1 2.9 3.2 3.6l1.1.3c1.1.4 2.4.9 2.4 2.3s-1.1 1.9-2.9 1.9c-1.3 0-2.6-.3-3.8-.9-.2.5-.2 1-.2 1.4 1.3.7 2.7 1 4.1.9 2.8 0 4.5-1.2 4.5-3.4s-1.4-3-3.3-3.6m6.4-18.9H98V26.3c0-4.2-2.1-6.7-8.4-6.7-2.3.1-4.7.4-6.9 1V38h3.8V23.2c1-.2 2-.3 3-.3 3.8 0 4.7 1.3 4.7 4.1v10.9zm7.2 23.1c-.9.9-2.1 1.3-3.3 1.3-2.1 0-3.1-1-3.1-3.5v-7.5h-1.6v7.9c0 3.1 1.5 4.6 4.2 4.6 1.4.1 2.8-.4 3.9-1.3v1.1h1.6V51.4h-1.6l-.1 9.6zm9.8-23.2c.2-1.1.4-2.1.4-3.2-1 .3-2 .5-3 .5-1.8 0-2.9-.9-2.9-3.1v-8.5h5.7c.2-1.1.3-2.2.4-3.3h-6v-6.6c-1.3 0-2.6.2-3.8.6v18.2c0 4.2 2.4 5.9 6.1 5.9.9.1 2-.1 3.1-.5M26.5 20.1c-.1-1.3-.4-2.5-1.1-3.7l-5.8-10c-.4-.8-.7-1.6-.9-2.4l-.2.4c-1.4 2.5-1.4 5.5 0 8l4.6 8c1.4 2.5 1.4 5.5 0 8l-.2.4c-.2-.9-.5-1.7-.9-2.4l-4.2-7.3-2.8-4.7c-.4-.8-.7-1.6-.9-2.4l-.2.4c-1.4 2.5-1.4 5.5 0 8l4.6 8c1.4 2.5 1.4 5.5 0 8l-.2.4c-.2-.9-.5-1.7-.9-2.4l-5.8-10c-.8-1.3-1.1-2.8-1.1-4.4C4.3 21.7 0 25.1 0 29.1c0 5.5 8.3 10 18.5 10S37 34.6 37 29.1c-.1-4-4.3-7.4-10.5-9M50.9 35c-2.2 0-4.3-.5-6.4-1.4-.4 1.1-.6 2.3-.6 3.5 2.2 1 4.7 1.4 7.1 1.3 5.9 0 8.9-2.7 8.9-6.7 0-3.4-1.8-5.3-6.2-7.2l-1.9-.8c-2.4-1-3.8-2.1-3.8-3.9s1.4-3 4.4-3c1.9 0 3.9.4 5.7 1 .4-1.1.6-2.3.7-3.5-2-.7-4.2-1-6.4-1-5.6 0-8.4 2.5-8.4 6.5 0 3.7 2.2 5.5 5.5 6.9l1.8.8c3.3 1.4 4.6 2.4 4.6 4.4s-1.8 3.1-5 3.1m23.9 16.1c-1.5 0-3 .3-4.4.7v11.7H72V52.9c.9-.2 1.8-.3 2.7-.3 2.9 0 3.7 1.1 3.7 3.3v7.6H80v-7.9c.1-2.9-1.3-4.5-5.2-4.5m43.9 0c-1.4 0-2.8.4-4.1 1-1.1-.7-2.4-1.1-3.7-1-1.6 0-3.1.2-4.6.7v11.7h1.6V52.9c.9-.2 1.9-.3 2.8-.3 2.5 0 3.4.9 3.4 3.2v7.7h1.6v-7.9c0-.8-.1-1.6-.4-2.3 1-.4 2-.7 3.1-.7 2.4 0 3.5 1.1 3.5 3.3v7.7h1.7v-7.9c.1-3-1.3-4.6-4.9-4.6m61.9-12.8c1.9 0 3.8-.3 5.6-1.1.2-1.1.5-2.5.6-3.5-1.9.9-4 1.3-6.1 1.3-3.4 0-5.2-1.5-5.7-4.6h12.2c.1-1 .2-2 .2-2.9 0-4.4-2.4-7.9-7.8-7.9-6.1 0-8.5 4.1-8.5 9.3 0 5.9 3.1 9.5 9.5 9.4m-1.2-15.5c2.6 0 4.2 1.7 4.2 4.5H175c.2-2.9 1.7-4.5 4.4-4.5M51.7 48.5c1.1 0 2.2.2 3.2.6.2-.5.3-1 .3-1.6-1.1-.4-2.3-.6-3.5-.6-4.9 0-7.8 3.1-7.8 8.5 0 5.1 2.7 8.4 7.6 8.4 1.1 0 2.2-.1 3.3-.5.1-.6.2-1.2.3-1.7-1 .4-2.2.7-3.3.7-3.7 0-6.1-2.6-6.1-6.9s2.3-6.9 6-6.9m10.5 2.6c-3.6 0-5.8 2.4-5.8 6.4 0 3.6 1.9 6.3 5.7 6.3s5.8-2.4 5.8-6.5c0-3.6-1.9-6.2-5.7-6.2m0 11.2c-2.7 0-4.1-1.8-4.1-4.9 0-2.9 1.3-4.8 4.1-4.8s4.1 1.8 4.1 4.9-1.4 4.8-4.1 4.8m12.6-26.4L75 38h3.5V20.6c-2.1-.7-4.3-1-6.6-1-6.4 0-9.7 3.5-9.7 9.6 0 5.8 3 9.1 7.6 9.1 2.1.2 4-.8 5-2.4m-8.6-6.7c0-3.9 1.8-6.3 5.8-6.3.9 0 1.8.1 2.7.3V34c-1.1.8-2.4 1.3-3.7 1.2-3.4 0-4.9-2.5-4.8-6m101.7-15.5c-1.3 0-2.6.1-3.8.5V20c-.9-.2-1.9-.3-2.8-.3-6.4 0-9.7 3.5-9.7 9.6 0 5.8 3.1 9.1 7.6 9.1 2 .2 4-.9 5-2.6l.2 2.2h3.5V13.7zM164.1 34c-1.1.9-2.4 1.3-3.8 1.3-3.4 0-4.8-2.5-4.8-6 0-4 1.8-6.3 5.6-6.3 1 0 2 .1 3 .3V34zm6.7 17.1c-1.5 0-3 .3-4.4.7v11.7h1.6V52.9c.9-.2 1.8-.3 2.7-.3 2.9 0 3.7 1.1 3.7 3.3v7.6h1.6v-7.9c.1-2.9-1.2-4.5-5.2-4.5m23.6-28c.9-.1 1.9-.2 2.8-.2 1 0 1.9 0 2.9.1.2-1.1.4-2.2.3-3.3-1.1-.1-2.2-.2-3.3-.1-2.2 0-4.4.4-6.5 1v17.3h3.8V23.1zm-15.8 34.4c0 4 2.1 6.2 5.4 6.2 1.2 0 2.3-.4 3.2-1.2v.9h1.5V51.7c-1.3-.5-2.6-.7-3.9-.7-4.2.1-6.3 2.4-6.2 6.5m8.4 3.7c-.8.8-1.9 1.2-3 1.2-2.6 0-3.9-1.9-3.9-4.9s1.4-5 4.6-5c.8 0 1.5.1 2.3.3v8.4zm37.6-4.7c0-3-1.5-5.4-5-5.4-3.9 0-5.4 2.8-5.4 6.3 0 4 2.1 6.4 6 6.4 1.3 0 2.6-.3 3.7-.9.1-.5.2-1 .2-1.6-1.2.7-2.6 1-3.9 1-2.7 0-4.2-1.5-4.4-4.3h8.7c.1-.5.1-1 .1-1.5m-1.7 0h-7.1c.2-2.4 1.3-4 3.7-4s3.5 1.6 3.5 3.9v.1zm-26.6-5.4c-1.5 0-3 .3-4.4.7v11.7h1.6V52.9c.9-.2 1.8-.3 2.7-.3 2.9 0 3.7 1.1 3.7 3.3v7.6h1.7v-7.9c.1-2.9-1.3-4.5-5.3-4.5m13.9 1.4c.9 0 1.8.2 2.6.5.1-.5.2-.9.2-1.4-.9-.4-1.8-.6-2.8-.6-4.2 0-6.2 2.5-6.2 6.4 0 4 2.3 6.3 5.7 6.3 1.1 0 2.1-.2 3-.8.1-.5.2-1 .2-1.6-.9.6-2 .9-3.1.9-2.4 0-4.2-1.5-4.2-4.9 0-3 1.6-4.8 4.6-4.8m-71.2-.8v11.7h1.7V52.8c.8-.2 1.5-.3 2.3-.3.6 0 1.2 0 1.8.1.1-.5.2-.9.2-1.4-.7-.1-1.3-.1-2-.1-1.4 0-2.7.2-4 .6m-9.9-31.1c-2.1-.7-4.3-1-6.5-1-6.4 0-9.7 3.5-9.7 9.6 0 5.8 3.1 9.1 7.6 9.1 2 .1 3.8-.8 4.9-2.5l.2 2.1h3.5V20.6zM125.3 34c-1.1.8-2.4 1.3-3.7 1.2-3.4 0-4.8-2.5-4.8-6 0-3.9 1.8-6.3 5.8-6.3.9 0 1.8.1 2.7.2V34zm14.9-14.4c-2.3.1-4.7.4-6.9 1V38h3.8V23.2c1-.2 2-.3 3-.3 3.8 0 4.7 1.3 4.7 4.1v11h3.8V26.3c0-4.2-2-6.7-8.4-6.7m-8.8 31.5c-3.8 0-5.4 2.8-5.4 6.3 0 4 2.1 6.4 6 6.4 1.3 0 2.6-.3 3.7-.9.1-.5.2-1.1.3-1.6-1.2.7-2.6 1-3.9 1-2.7 0-4.2-1.5-4.4-4.3h8.7c.1-.5.1-1 .1-1.5-.1-3-1.6-5.4-5.1-5.4m3.4 5.4h-7.1c.2-2.4 1.3-4 3.7-4s3.5 1.6 3.5 3.9l-.1.1zm15.3 7h1.6v-7.4h6.8c.1-.4.1-1.1.2-1.6h-6.9v-5.7h7.4c.1-.5.2-1 .2-1.6h-9.2v16.3zm11.5 0h1.6V51.4h-1.6v12.1zm.8-16.2c-.6 0-1.1.4-1.1 1v.1c0 .6.4 1.1 1 1.1h.1c.6 0 1-.4 1.1-.9v-.2c0-.5-.4-1-1.1-1.1.1 0 0 0 0 0"/></g><g class="st3"><path d="M275.2 6.8c1.5 1.5 2.3 3.4 2.3 5.8 0 1.7-.4 3.1-1.1 4.4-.7 1.2-1.8 2.2-3.1 2.9-1.4.7-3 1-5 1h-2.5v7.8h-4.4V5.2c.9-.2 2-.3 3.2-.4 1.2-.1 2.3-.2 3.3-.2 3.4.1 5.8.8 7.3 2.2zm-3.4 9.3c.8-.8 1.2-1.9 1.2-3.3 0-1.5-.4-2.6-1.1-3.3-.8-.8-2-1.2-3.7-1.2-.8 0-1.5 0-2.3.1v8.9h2.4c1.5 0 2.7-.4 3.5-1.2zm22.2-3.9v16.5h-4l-.3-2.4c-.9 1.9-2.3 2.8-4.2 2.8-2 0-3.6-.7-4.7-2.2s-1.7-3.6-1.7-6.6c0-2.9.7-5.1 2-6.7 1.4-1.6 3.5-2.3 6.6-2.3 2.2.1 4.3.4 6.3.9zm-4.3 12.3V15c-.6-.1-1.3-.2-2.1-.2-1.5 0-2.6.5-3.2 1.4s-.9 2.3-.9 4c0 1.9.3 3.2.9 4.1.6.9 1.4 1.3 2.5 1.3 1.1.1 2-.3 2.8-1.1zm22.5-12.7-6.1 18.5c-.6 1.9-1.5 3.4-2.7 4.5s-2.7 1.6-4.5 1.6c-.6 0-1.2-.1-1.7-.2 0-1.3.1-2.5.2-3.5.5.1.8.1 1.1.1.9 0 1.7-.2 2.3-.7.6-.5 1.1-1.3 1.5-2.4l-6.7-17.9h4.5l4.1 12.8 3.7-12.8h4.3z" class="st4"/></g><g class="st3"><path d="M273.8 48.6c1.4 1.5 2.1 3.6 2.1 6.4 0 1.9-.3 3.5-1 4.8-.6 1.4-1.6 2.4-2.9 3.2-1.3.7-2.9 1.1-4.9 1.1-.7 0-1.3 0-2-.1v7h-4.4V47.7c1-.4 2.1-.8 3.3-1 1.2-.2 2.3-.4 3.5-.4 2.8.1 4.8.8 6.3 2.3zm-3.3 10.6c.7-1 1-2.3 1-4 0-1.8-.3-3.1-1-4-.7-.9-1.7-1.3-3.2-1.3-.7 0-1.5.1-2.2.3v10.2c.7.1 1.4.2 2.1.2 1.5 0 2.6-.5 3.3-1.4zm22.2-3.7c0 .5-.1.9-.1 1.3h-10.5c.2 1.5.7 2.5 1.5 3.1.8.6 1.9.9 3.4.9 1.8 0 3.6-.4 5.3-1.3-.1 1.4-.3 2.5-.5 3.6-1.5.7-3.2 1.1-5.3 1.1-3 0-5.2-.8-6.6-2.4-1.4-1.6-2.1-3.8-2.1-6.7 0-1.7.3-3.2.9-4.5.6-1.3 1.4-2.3 2.6-3.1 1.2-.7 2.6-1.1 4.3-1.1 1.6 0 3 .3 4.1 1s1.9 1.6 2.4 2.7.8 2.4.8 3.9c-.1.5-.1 1-.2 1.5zm-9.6-4.8c-.6.7-.9 1.6-1 2.9h6.5c0-1.3-.3-2.3-.8-2.9-.5-.7-1.3-1-2.3-1-1.1 0-1.8.4-2.4 1z" class="st4"/></g><g class="st3"><path d="M305.8 46.7c0 .6 0 1.3-.1 1.9-.1.6-.2 1.2-.3 1.7-.8-.1-1.8-.2-3-.2-.8 0-1.5 0-2.2.1v13.6h-4.4V47.3c1-.2 2-.5 3.1-.6 1.1-.2 2.2-.3 3.2-.3 1.5 0 2.7.1 3.7.3z" class="st4"/></g><g class="st3"><path d="M338.9 63.8h-4.3l-.5-9.4c-.2-3-.3-5.6-.3-7.9-.8 2.9-1.8 6-3 9.4l-2.7 7.8h-3.7l-2.7-7.9c-1-2.7-1.9-5.8-2.9-9.1-.1 3.2-.2 5.9-.3 8.1l-.5 8.9h-4.2l1.6-23.3c.7-.2 1.5-.3 2.5-.4 1-.1 2-.2 2.8-.2l5.5 17.8 5.5-17.2c.8-.2 1.7-.4 2.7-.4 1-.1 2-.1 2.9-.1l1.6 23.9zm6.2-.7c-1.2-.7-2.1-1.7-2.8-3.1-.6-1.3-1-2.9-1-4.8s.3-3.5.9-4.8c.6-1.3 1.5-2.4 2.8-3.1 1.2-.7 2.7-1.1 4.4-1.1s3.2.4 4.4 1.1c1.2.7 2.1 1.7 2.8 3.1.6 1.3 1 2.9 1 4.8 0 1.8-.3 3.4-1 4.8-.6 1.3-1.6 2.4-2.8 3.1-1.2.7-2.7 1.1-4.4 1.1-1.6 0-3.1-.4-4.3-1.1zm7.1-3.8c.6-.9.9-2.2.9-4 0-1.8-.3-3.2-.9-4.1-.6-.9-1.5-1.3-2.8-1.3-1.2 0-2.1.4-2.7 1.3-.6.9-.9 2.2-.9 4.1 0 1.8.3 3.2.9 4 .6.9 1.5 1.3 2.7 1.3 1.3.1 2.2-.4 2.8-1.3zM372.9 48c1.1 1.1 1.7 2.6 1.7 4.6v11.2h-4.4V53c0-1.1-.2-1.9-.7-2.4-.5-.5-1.3-.7-2.5-.7-.8 0-1.6.1-2.4.3v13.7h-4.4V47.5c1.1-.3 2.3-.6 3.5-.8 1.2-.2 2.3-.3 3.5-.3 2.6 0 4.5.5 5.7 1.6zm9.8 12c.4.4.9.6 1.7.6.4 0 .7-.1 1.2-.2.4-.1.8-.2 1.1-.4-.1 1.4-.3 2.6-.5 3.5-.8.4-1.8.6-3 .6-1.8 0-3.1-.5-4-1.4-.9-1-1.4-2.4-1.4-4.3V42.1c1.3-.4 2.8-.6 4.4-.6v5.3h4.7c-.1 1.2-.2 2.3-.4 3.4h-4.3V58c0 .9.1 1.6.5 2zm19.6-12c1.1 1.1 1.6 2.6 1.6 4.5v11.2h-4.4V53c0-1.1-.2-1.9-.7-2.4-.5-.5-1.3-.7-2.3-.7-.8 0-1.7.1-2.6.4v13.4h-4.4V40.2c1.4-.4 2.8-.6 4.4-.6V47c1-.4 2.1-.5 3.2-.5 2.4-.1 4.2.4 5.2 1.5z" class="st4"/></g></svg>