<svg xmlns="http://www.w3.org/2000/svg" data-name="Layer 1" viewBox="0 0 140 48"><defs><clipPath id="a"><path fill="none" stroke-width="0" d="M0 0h140v48H0z"/></clipPath></defs><g clip-path="url(#a)"><path fill="#aa0024" d="M14.6874 9.2917c-3.0501 0-6.1056.0171-9.1557.0492C2.175 9.3752.0302 11.6338.0173 14.9876a2328.8396 2328.8396 0 0 0 0 17.9718c.014 3.449 2.1847 5.5739 5.6606 5.5889 3.6995.0171 7.3936.0085 11.0856.0085 3.8199 0 7.6484-.0321 11.4705.0161.887.0118 1.1665-.2066 1.1622-1.124-.0376-7.4921-.0065-14.9799-.0323-22.4688 0-3.358-2.147-5.607-5.4982-5.6413-3.063-.031-6.1002-.0493-9.1643-.0493l-.014.0022Zm.0161 8.4962c1.846 0 3.6866.0053 5.5305.016 1.6578.0097 2.3771.6541 2.3889 2.0285.0129 1.3724-.83 2.111-2.4706 2.126-1.8428.016-3.6888 0-5.5294 0h-.0075c-1.8019 0-3.6081.0128-5.409-.0086-1.5621-.0203-2.3738-.7525-2.3814-2.0777-.0075-1.3809.7171-2.0585 2.3406-2.0692 1.8438-.0107 3.692-.015 5.5379-.015Zm-.0161 8.0969c1.8697 0 3.7361-.0011 5.6057.0086 1.4955.0075 2.3169.8231 2.2911 2.1751-.0237 1.2824-.801 1.9986-2.2911 2.02-1.8868.0267-3.7812.0085-5.6713.0085h-.0075c-1.846 0-3.6941.0193-5.5401-.0085-1.4933-.0225-2.2685-.7386-2.2911-2.0285-.0247-1.3531.7977-2.1602 2.2986-2.1666 1.8697-.0086 3.7361-.0086 5.6057-.0086Z"/><path fill="#2d3c49" d="M43.5162 9.382c-1.074 0-2.1416.0086-3.2157.0161-1.9072.014-2.5577.6583-2.5609 2.5413-.0075 4.0152 0 8.0369 0 12.0576v.0085c0 4.1009-.0161 8.2072 0 12.3102.0064 1.6293.6386 2.2619 2.2577 2.2812 2.2761.0257 4.5553-.0129 6.8314.016 3.7995.0482 6.5926-1.6934 8.0935-5.06 1.5396-3.4597.9375-6.7727-1.7589-9.5731-.3752-.3885-.5601-.6112-.1064-1.1239 2.29-2.5927 2.7889-5.5846 1.3987-8.691-1.446-3.2382-4.1629-4.7603-7.7161-4.7732a806.6706 806.6706 0 0 0-3.2233-.0096Zm-.8375 3.9939c1.4589.0482 2.919-.0353 4.3779.0407 2.3599.1231 4.0091 1.8455 3.9586 4.0324-.0516 2.3561-1.6589 3.8847-4.1478 3.9179-1.374.0192-2.7523-.0321-4.1242.0246-.7526.031-.9697-.2387-.9321-.9527.0537-1.0255.0161-2.0531.0161-3.0786 0-1.0266.029-2.0542-.0086-3.0787-.0226-.6379.1516-.928.859-.9045v-.0011h.0011Zm-.0408 12.0908c1.5417.0343 3.0845-.0503 4.6241.0407 2.4824.1456 4.3961 2.1462 4.394 4.4734-.0011 2.295-1.8277 4.2722-4.2704 4.4627-1.5761.1231-3.163.0321-4.7445.0739-.6118.016-.8343-.2034-.8182-.8146.0333-1.2353.0086-2.4696.0086-3.707 0-1.2375.0237-2.4781-.0086-3.7145-.0161-.608.2032-.8274.8182-.8146h-.0032Zm22.9755-8.6094c-3.8328.0782-7.771 3.4544-7.5194 8.1387.1032 1.9204.0613 3.8536 0 5.7772-.0925 2.8624 1.145 5.013 3.3963 6.6711 3.2286 2.3818 8.7063 1.8037 11.0394-1.1571.8945-1.1369.8805-2.0864-.0409-2.9566-.9053-.8543-1.9288-.7986-2.9534.1552-1.5815 1.4718-3.3673 1.7994-5.0563.9366-1.7911-.9152-2.5007-2.3785-2.3319-4.5783.0548-.699.4096-.7215.9246-.7172 1.3751.0128 2.7469 0 4.1242 0h2.3233c4.1134 0 4.4725-.3725 4.2779-4.4734-.2161-4.5901-3.6919-7.8882-8.1838-7.7962Zm.4096 4.0977c1.96.0322 3.4823 1.4462 3.6157 3.2895.0451.6241-.1559.8447-.7774.8232-.9848-.0331-1.975-.0085-2.9609-.0085-.9428 0-1.8889-.03-2.8308.0085-.6601.0268-.9138-.153-.8429-.8724.1882-1.9129 1.7482-3.2766 3.7963-3.2424v.0021Zm57.3 4.6455c0 1.9246.068 3.8525-.017 5.7729-.14 3.1825-1.69 5.5803-4.594 6.8681-3.045 1.3498-5.969.8948-8.507-1.3371-1.587-1.3937-2.481-3.1803-2.508-5.2912-.053-4.1052-.041-8.2115-.02-12.3209.007-1.2674.81-2.0681 1.956-2.0981 1.183-.031 2.049.805 2.059 2.127.028 3.8483-.023 7.6987.024 11.5502.034 2.8581 2.385 4.635 4.92 3.8044 1.636-.5353 2.515-1.7406 2.527-3.6021.024-3.6353.004-7.2705.011-10.9079.001-.4261-.001-.8607.076-1.276.213-1.1454 1.011-1.7117 2.104-1.6667 1.091.045 1.911.6573 1.941 1.8326.056 2.1795.016 4.3621.016 6.5426h.012v.0022Zm-32.3614 3.8559c0 2.2662.0054 4.5324-.0022 6.7985-.0043 1.5907-.673 2.3389-2.0578 2.3325-1.3353-.0064-2.0438-.8082-2.047-2.385-.0108-4.5761-.0323-9.1513.0194-13.7232.0107-.943-.2022-1.2481-1.189-1.2042-1.5709.0685-2.4278-.7151-2.432-1.9943-.0033-1.231.9332-2.1355 2.4383-2.0189 1.4805.1146 1.1934-.8092 1.1515-1.5971-.2817-5.197 4.4854-7.4482 8.2774-6.4227 1.5234.4121 2.4813 1.3327 2.5835 2.5102.143 1.6453-1.1214 2.5777-2.6652 1.9097-.972-.4207-1.9138-.7461-2.9642-.3158-.8977.3672-1.6417 2.9866-1.0439 3.7252.1914.2376.473.1488.7171.152 1.03.0086 2.061-.0064 3.092.0064 1.6138.0193 2.3933.683 2.404 2.0232.0119 1.4076-.6902 2.0296-2.3362 2.0478-1.0311.0107-2.0632.0406-3.0921-.0118-.6741-.0343-.8816.1755-.8708.8574.0419 2.4374.0172 4.8759.0172 7.3133v-.0032Zm42.3614-12.63c1.792.0739 3.753.9848 5.295 2.7618.79.9109.784 2.3218.009 3.0101-.987.8767-2.152.8521-3.051-.2323-1.021-1.2321-2.263-1.6228-3.775-1.3466-.826.1498-1.44.6101-1.627 1.4483-.183.8232.277 1.3723.942 1.7962.945.6038 1.977 1.018 3.024 1.397.971.3511 1.89.7996 2.775 1.3273 2.249 1.3424 3.255 3.3195 3.062 5.9068-.191 2.5723-1.66 4.2561-3.917 5.2763-3.034 1.3723-7.029.7321-9.152-1.3724-1.103-1.0929-1.287-2.2618-.5-3.1792.916-1.0683 2.099-1.0555 3.235.0343 1.432 1.3744 3.657 1.6024 5.18.5309 1.49-1.0491 1.501-2.6665-.005-3.6781-1.181-.7943-2.541-1.215-3.845-1.7555-2.184-.9078-4.189-2.0082-4.764-4.6019-.888-4.0035 2.096-7.3562 7.114-7.323Zm-52.3596 7.1649c.0011 4.0602.014 8.1215-.0043 12.1817-.0075 1.655-.7612 2.4289-2.1879 2.3475-1.1697-.0663-1.8374-.6797-1.8395-1.8593-.0183-8.4641-.0172-16.9239-.0032-25.3912.001-1.1604.7934-1.9043 1.933-1.9364 1.201-.0343 2.0793.776 2.089 2.0895.0312 4.1887.0107 8.3784.013 12.5682Zm22.8996 3.8571c0 2.7811.008 5.561-.003 8.341-.006 1.6517-.631 2.3732-2.01 2.3743-1.368.0011-2.041-.7354-2.0453-2.37-.0172-5.5182-.015-11.0364-.0011-16.5492.0043-1.5415.7824-2.431 2.0404-2.4321 1.274-.0011 2.011.8703 2.016 2.4278.011 2.7371.003 5.4754.003 8.2125v-.0043Z"/><path fill="#2e3d4a" d="M103.862 11.9c.004 2.2523-.735 3.1236-2.368 2.9256-1.386-.1691-2.0255-1.6078-1.6632-3.7477.2192-1.2952 1.2592-1.99 2.5502-1.6645 1.393.3522 1.556 1.4237 1.481 2.4866Z"/></g></svg>