<svg xmlns="http://www.w3.org/2000/svg" id="Layer_1" data-name="Layer 1" viewBox="0 0 115 48"><defs><clipPath id="clippath"><path fill="none" stroke-width="0" d="M0 0h140v48H0z"/></clipPath><style>.cls-3{stroke-width:0}</style></defs><g clip-path="url(#clippath)"><path d="M47.5225 7.0298c1.2005 0 2.2219.4134 3.0462 1.2221.8242.8088 1.2364 1.8152 1.2364 3.0015 0 1.1862-.4122 2.1927-1.2364 3.0014-.8243.8088-1.8457 1.2222-3.0462 1.2222h-2.2041v4.1337h-2.4727V7.0297h4.6768Zm0 6.1287c1.0572 0 1.8277-.8267 1.8277-1.9051 0-1.0964-.7705-1.9052-1.8277-1.9052h-2.2041v3.8103h2.2041Zm11.5362-2.536h2.3116v8.9864h-2.3116v-1.0604c-.6988.8807-1.6665 1.312-2.9207 1.312-1.2006 0-2.2219-.4493-3.0821-1.3659-.8422-.9166-1.2722-2.0489-1.2722-3.3789s.43-2.4443 1.2722-3.3609c.8602-.9166 1.8815-1.384 3.0821-1.384 1.2542 0 2.2219.4314 2.9207 1.3121v-1.0604Zm-2.4907 7.0274c.7168 0 1.3081-.2337 1.7739-.701.4838-.4852.7168-1.0963.7168-1.8332s-.233-1.3479-.7168-1.8153c-.4658-.4852-1.0571-.7189-1.7739-.7189-.7167 0-1.3081.2337-1.774.7189-.4659.4674-.6988 1.0784-.6988 1.8153s.2329 1.348.6988 1.8332c.4659.4673 1.0573.701 1.774.701Zm12.0221-7.0256h2.4727l-3.2611 8.9864c-.9318 2.5881-2.437 3.7204-4.7306 3.5946v-2.1568c1.2364.018 1.9173-.5032 2.3473-1.7254l-3.6733-8.6988h2.5265l2.3295 6.0388 1.989-6.0388Zm15.2518 8.983-.7527-2.2645H78.09l-.7526 2.2645h-2.6699l4.3901-12.581h3.064l4.408 12.581h-2.6877Zm-4.9636-4.583h3.4404L80.5985 9.884l-1.7202 5.1403ZM91.5044 9.006c-1.2722-.0898-1.8994.4134-1.8994 1.5277v.0899h1.8994v2.2286H89.605V19.61h-2.3115v-6.7578h-1.2901v-2.2286h1.2901v-.0899c0-2.5341 1.4156-3.918 4.2109-3.7563v2.2287Z" class="cls-3"/><path d="M97.3977 12.8549h-2.0249v3.7384c0 .9705.699.9885 2.0249.9166v2.1028c-3.1717.3595-4.3363-.5571-4.3363-3.0194v-3.7384h-1.559v-2.2286h1.559V8.811l2.3114-.7009v2.5162h2.0249v2.2286Zm2.8133 3.2148c.305 1.1323 1.147 1.6895 2.527 1.6895.878 0 1.558-.3056 2.006-.8987l1.864 1.0784c-.878 1.2761-2.186 1.9231-3.906 1.9231-1.488 0-2.67-.4494-3.5661-1.348-.896-.8986-1.3439-2.0309-1.3439-3.3969 0-1.3479.4479-2.4802 1.3259-3.3788.8781-.9167 2.0251-1.366 3.4041-1.366 1.309 0 2.402.4493 3.244 1.366.86.9166 1.29 2.0309 1.29 3.3788 0 .3056-.036.6111-.09.9526h-6.755Zm4.533-1.7973c-.268-1.2221-1.164-1.8152-2.222-1.8152-1.236 0-2.078.665-2.347 1.8152h4.569Zm5.532-2.1027c.43-1.1502 1.506-1.7254 2.724-1.7254v2.5881c-.699-.0899-1.344.0539-1.899.4314-.556.3774-.825.9885-.825 1.8512v4.2955h-2.311V10.624h2.311v1.5457ZM47.801 25.0544c1.7111 0 3.1371.6111 4.2778 1.8152 1.1586 1.2042 1.729 2.696 1.729 4.4753 0 1.7794-.5704 3.271-1.729 4.4752-1.1407 1.2042-2.5667 1.8153-4.2778 1.8153h-4.9553v-12.581h4.9553Zm0 10.2086c1.0872 0 1.9606-.3594 2.6379-1.0784.6774-.7368 1.016-1.6714 1.016-2.8397 0-1.1682-.3386-2.1028-1.016-2.8217-.6773-.7369-1.5507-1.0963-2.6379-1.0963h-2.4956v7.8361h2.4956Zm8.8968-1.1687c.303 1.1323 1.1407 1.6895 2.5133 1.6895.8734 0 1.5507-.3055 1.9963-.8986l1.8537 1.0784c-.8734 1.276-2.1745 1.923-3.8857 1.923-1.4794 0-2.6559-.4492-3.5471-1.3479s-1.3368-2.0309-1.3368-3.3968c0-1.3481.4456-2.4804 1.319-3.379.8734-.9165 2.0141-1.3659 3.3866-1.3659 1.3013 0 2.3885.4494 3.2263 1.3659.8556.9166 1.2834 2.0309 1.2834 3.379 0 .3055-.0357.611-.0892.9524h-6.7198Zm4.5096-1.7972c-.2673-1.2221-1.1586-1.8153-2.2103-1.8153-1.2298 0-2.0675.6651-2.3349 1.8153h4.5452Zm3.1993 5.3404V24.5173h2.2994v13.1202h-2.2994ZM67.8062 26.15c0-.7728.6417-1.4378 1.4081-1.4378.7843 0 1.4259.665 1.4259 1.4378s-.6416 1.4198-1.4259 1.4198c-.7664 0-1.4081-.647-1.4081-1.4198Zm.2673 11.4846v-8.9864h2.2994v8.9864h-2.2994Zm9.5145-8.9857h2.5311l-3.3867 8.9865h-2.6202l-3.3866-8.9865h2.531l2.1568 6.2905 2.1746-6.2905Zm4.4526 5.4454c.303 1.1323 1.1408 1.6895 2.5133 1.6895.8734 0 1.5506-.3055 1.9963-.8986l1.8537 1.0784c-.8734 1.276-2.1745 1.923-3.8857 1.923-1.4794 0-2.656-.4492-3.5471-1.3479-.8913-.8987-1.3368-2.0309-1.3368-3.3968 0-1.3481.4455-2.4804 1.319-3.379.8734-.9165 2.0141-1.3659 3.3866-1.3659 1.3012 0 2.3885.4494 3.2263 1.3659.8555.9166 1.2834 2.0309 1.2834 3.379 0 .3055-.0357.611-.0892.9524h-6.7198Zm4.5096-1.7972c-.2674-1.2221-1.1586-1.8153-2.2103-1.8153-1.2298 0-2.0676.6651-2.3349 1.8153h4.5452Zm5.5065-2.1044c.4278-1.1503 1.4973-1.7254 2.7094-1.7254v2.5881c-.6952-.0899-1.3369.0539-1.8895.4313-.5525.3774-.8199.9885-.8199 1.8512v4.2955h-2.2994V28.647h2.2994v1.5457Zm9.5263-1.5421h2.46l-3.244 8.9865c-.9273 2.5881-2.4246 3.7204-4.7061 3.5946v-2.1568c1.2299.018 1.9072-.5032 2.335-1.7254l-3.654-8.6989h2.5133l2.3172 6.0389 1.9786-6.0389Z" class="cls-3"/><path fill="#fabd00" stroke-width="0" d="M30.9181 6c-.0043 0-.0087.8498-.0119.8498h-.0044v8.3333c-1.5433-.9273-3.3019-1.3996-5.2487-1.3996-1.3617 0-2.6288.2291-3.7936.6818-1.2823.4985-2.4427 1.2676-3.4738 2.3017-.1457.1473-.2893.2979-.4198.4506a.0498.0498 0 0 1 .0076.0087c1.6553 1.8796 2.471 4.1606 2.471 6.7886 0-1.5272.4786-2.7916 1.415-3.7876.0141-.0163.0294-.0316.0446-.048 1.0006-1.0079 2.2416-1.5163 3.749-1.5163 1.4998 0 2.7364.5084 3.7413 1.5163 1.005 1.0036 1.5074 2.2843 1.5074 3.8356 0 1.5523-.5024 2.8287-1.5074 3.8366-1.0049 1.0037-2.2415 1.512-3.7413 1.512-1.5074 0-2.7484-.5083-3.749-1.512-.0152-.0152-.0293-.0316-.0446-.0469-.9364-1.0003-1.415-2.2614-1.415-3.7897 0 2.6279-.8157 4.8544-2.471 6.7351-.0152.0175-.0304.036-.0467.0535.1414.1691.299.3349.4589.4952 1.0311 1.0353 2.1915 1.7934 3.4738 2.28 1.1648.4451 2.4319.6643 3.7936.6643 2.8517 0 5.289-.9676 7.2586-2.9443 1.9229-1.9276 2.9246-4.2959 2.9724-7.0798.0076-.0676.0076-.1353.0076-.204V13.7726c0-3.468-2.0381-6.3566-4.9736-7.7726Z"/><path fill="#00abee" stroke-width="0" d="M15.4602 24.0113c0 1.5523-.5079 2.8276-1.4726 3.8312-1.0006 1.008-2.2415 1.5163-3.7489 1.5163-.0794 0-.1588-.001-.2371-.0043-1.3932-.0513-2.5526-.5575-3.5043-1.512C5.4923 26.8389 4.99 25.5582 4.99 24.007c0-1.5524.5025-2.8287 1.5074-3.8367.9517-.9502 2.111-1.4563 3.5043-1.5076a5.647 5.647 0 0 1 .2371-.0044c1.5074 0 2.7483.5084 3.7489 1.512.9647 1.008 1.4726 2.2887 1.4726 3.841 0-2.6279.8027-4.8588 2.458-6.7395.0153-.0174.0305-.036.0468-.0534-.1414-.1691-.2991-.3349-.459-.4953-1.9696-1.9767-4.408-2.9443-7.2673-2.9443-.0794 0-.1577.0011-.2371.0033-2.7495.0513-5.1063 1.0189-7.0226 2.941C1.057 18.6507.0555 21.019.0076 23.803 0 23.8706 0 23.9382 0 24.007v10.2423C0 37.7172 2.0382 40.5841 4.9736 42c.0043 0 .0087-.828.012-.828h.0043v-8.3332c1.4802.889 3.1584 1.3603 5.0117 1.3974.0783.0011.1577.0022.2371.0022 2.8593 0 5.2977-1.008 7.2673-2.9836.1458-.1473.2893-.2978.4198-.4505-.0032-.0033-.0054-.0055-.0076-.0088-1.6553-1.8796-2.458-4.1562-2.458-6.7842Z"/><path fill="#006693" stroke-width="0" d="M20.4438 24.0156c0 2.6279-.8157 4.8544-2.471 6.7351-.0152.0175-.0304.036-.0467.0535-.0033-.0033-.0055-.0055-.0077-.0088-1.6553-1.8796-2.458-4.1562-2.458-6.7842s.8027-4.8588 2.458-6.7395c.0153-.0174.0305-.036.0468-.0534a.0498.0498 0 0 1 .0076.0087c1.6553 1.8796 2.471 4.1606 2.471 6.7886Z"/></g></svg>