<svg xmlns="http://www.w3.org/2000/svg" data-name="Layer 1" viewBox="0 0 74 48"><defs><linearGradient id="a" x1="12.0543" x2="33.0781" y1="24.3302" y2="32.1705" gradientTransform="matrix(1 0 0 -1 0 48.3465)" gradientUnits="userSpaceOnUse"><stop offset="0" stop-color="#005ab9"/><stop offset="1" stop-color="#1e3764"/></linearGradient><linearGradient id="b" x1="36.7574" x2="59.0834" y1="29.5812" y2="37.2289" gradientTransform="matrix(1 0 0 -1 0 48.3465)" gradientUnits="userSpaceOnUse"><stop offset="0" stop-color="#fba900"/><stop offset="1" stop-color="#ffd800"/></linearGradient></defs><path fill="#fff" d="M2.4097 0h65.1806c.6391 0 1.252.2529 1.7039.703A2.395 2.395 0 0 1 70 2.4v43.2c0 .6365-.2539 1.247-.7058 1.6971A2.415 2.415 0 0 1 67.5903 48H2.4097a2.4153 2.4153 0 0 1-1.704-.7029A2.3953 2.3953 0 0 1 0 45.6V2.4C0 1.7635.2539 1.153.7058.703A2.4146 2.4146 0 0 1 2.4097 0Z"/><path fill="#1e3764" d="M6.233 41.6502v-8.2774h2.5643c1.864 0 3.0631.6977 3.0631 2.1403 0 .8159-.3799 1.3835-.9142 1.7146.7717.3547 1.2229 1.0405 1.2229 1.9747 0 1.6673-1.2229 2.4478-3.1224 2.4478H6.2329Zm1.6502-4.8364H9.106c.748 0 1.0686-.3666 1.0686-1.0406 0-.7213-.5818-.9578-1.3654-.9578h-.926v1.9984Zm0 3.3937h1.021c.9973 0 1.579-.2483 1.579-1.0287 0-.7686-.4986-1.0879-1.4365-1.0879H7.8832v2.1166Zm7.4862 1.5845c-1.6266 0-2.4458-.7922-2.4458-1.8564 0-1.1707.9617-1.8566 2.3864-1.8684a7.467 7.467 0 0 1 1.0566.0947v-.2839c0-.7213-.4155-1.0642-1.2109-1.0642a4.1806 4.1806 0 0 0-1.5672.2838l-.2968-1.277c.5105-.2129 1.3297-.3548 2.0539-.3548 1.7452 0 2.6119.9223 2.6119 2.5187v3.2873c-.4867.2483-1.4009.5202-2.5881.5202Zm.9972-1.3362v-1.2652a4.0024 4.0024 0 0 0-.8429-.0946c-.5461 0-.9735.2129-.9735.7686 0 .4967.3561.7568.9854.7568a1.8647 1.8647 0 0 0 .831-.1656Zm2.7444 1.1944v-5.6641a7.274 7.274 0 0 1 2.6832-.5203c1.7333 0 2.7306.8513 2.7306 2.424v3.7604h-1.6384v-3.6421c0-.8159-.3799-1.1943-1.1041-1.1943a2.4986 2.4986 0 0 0-1.0448.2129v4.6235H19.111Zm11.1394-5.8296-.3087 1.2888a3.6281 3.6281 0 0 0-1.3416-.2956c-.9616 0-1.484.674-1.484 1.7856 0 1.2179.5461 1.8446 1.5672 1.8446a3.3725 3.3725 0 0 0 1.3178-.3074l.2612 1.3125a4.0091 4.0091 0 0 1-1.7097.3429c-1.9708 0-3.1105-1.2179-3.1105-3.1454 0-1.9156 1.1279-3.1808 3.0156-3.1808a4.591 4.591 0 0 1 1.7927.3548Zm3.5394 5.9714c-1.8283 0-2.9681-1.2652-2.9681-3.169 0-1.892 1.1398-3.1572 2.9681-3.1572 1.8403 0 2.9563 1.2652 2.9563 3.1572 0 1.9038-1.116 3.169-2.9563 3.169Zm0-1.348c.843 0 1.2822-.6976 1.2822-1.821 0-1.1115-.4392-1.8092-1.2822-1.8092-.831 0-1.294.6977-1.294 1.8092-.0001 1.1234.463 1.821 1.294 1.821Zm3.9044 1.2062v-5.6641a7.273 7.273 0 0 1 2.6831-.5203c1.7334 0 2.7307.8513 2.7307 2.424v3.7604h-1.6384v-3.6421c0-.8159-.3799-1.1943-1.1042-1.1943a2.4981 2.4981 0 0 0-1.0447.2129v4.6235h-1.6265Zm9.1087.1418c-1.4128 0-2.137-.7686-2.137-2.3295v-2.5541h-.8073v-1.3007h.8073v-1.3126l1.6384-.0828v1.3954h1.3178v1.3007h-1.3178v2.5305c0 .6859.2849 1.0051.8192 1.0051a2.8893 2.8893 0 0 0 .6292-.0709l.0831 1.3126a4.5512 4.5512 0 0 1-1.0329.1063Zm4.1354 0c-1.6265 0-2.4457-.7922-2.4457-1.8564 0-1.1707.9617-1.8566 2.3863-1.8684a7.467 7.467 0 0 1 1.0567.0947v-.2839c0-.7213-.4155-1.0642-1.211-1.0642a4.1806 4.1806 0 0 0-1.5672.2838l-.2968-1.277c.5105-.2129 1.3297-.3548 2.054-.3548 1.7452 0 2.6119.9223 2.6119 2.5187v3.2873c-.4868.2483-1.401.5202-2.5882.5202Zm.9973-1.3362v-1.2652a4.0033 4.0033 0 0 0-.843-.0946c-.5461 0-.9735.2129-.9735.7686 0 .4967.3562.7568.9854.7568a1.8638 1.8638 0 0 0 .8311-.1656Zm7.1964-4.6352-.3087 1.2888a3.6281 3.6281 0 0 0-1.3416-.2956c-.9616 0-1.484.674-1.484 1.7856 0 1.2179.5461 1.8446 1.5671 1.8446a3.3726 3.3726 0 0 0 1.3179-.3074l.2612 1.3125a4.0091 4.0091 0 0 1-1.7097.3429c-1.9708 0-3.1105-1.2179-3.1105-3.1454 0-1.9156 1.1279-3.1808 3.0155-3.1808a4.5915 4.5915 0 0 1 1.7928.3548Zm3.6021 5.9714c-1.4128 0-2.137-.7686-2.137-2.3295v-2.5541h-.8073v-1.3007h.8073v-1.3126l1.6384-.0828v1.3954h1.3178v1.3007h-1.3178v2.5305c0 .6859.285 1.0051.8192 1.0051a2.8893 2.8893 0 0 0 .6292-.0709l.0832 1.3126a4.5464 4.5464 0 0 1-1.033.1063Z"/><path fill="url(#a)" d="M17.661 29.234c8.6695 0 13.0042-5.7565 17.339-11.5131H6.233V29.234h11.428Z"/><path fill="url(#b)" d="M52.339 6.208c-8.6695 0-13.0043 5.7565-17.339 11.5131h28.7671V6.2081H52.339Z"/></svg>