<svg xmlns="http://www.w3.org/2000/svg" data-name="Layer 1" viewBox="0 0 115 48"><defs><clipPath id="a"><path fill="none" stroke-width="0" d="M0 0h140v48H0z"/></clipPath></defs><g fill="#1434cb" clip-path="url(#a)"><path d="m40.1636 41.4745 5.7649-34.8737h9.2302l-5.7789 34.8737h-9.2162ZM82.8682 7.464c-2.6518-.9889-5.4532-1.4844-8.2735-1.4634-9.1252 0-15.5398 4.7298-15.603 11.5115-.0481 4.9997 4.591 7.7988 8.0958 9.4771 3.5883 1.707 4.7954 2.7936 4.7773 4.3264-.0204 2.3307-2.866 3.3964-5.5167 3.3964-2.9958.091-5.9712-.534-8.693-1.826l-1.1911-.561-1.2916 7.8132c3.2913 1.2527 6.7753 1.8833 10.2842 1.8612 9.6978 0 16-4.6779 16.0717-11.9191.031-3.9595-2.4271-6.9833-7.7522-9.4771-3.2276-1.6068-5.2021-2.6889-5.1796-4.3221 0-1.4458 1.6694-2.993 5.2855-2.993 2.3682-.0548 4.7214.4001 6.909 1.3356l.825.4023 1.2522-7.5608"/><path fill-rule="evenodd" d="M99.3878 6.6392h7.1372l.003.001L114 41.4898h-8.57s-.847-4.0014-1.117-5.2202c-.717 0-3.709-.004-6.5156-.0078-2.4795-.0033-4.8145-.0065-5.3089-.0065-.3596.9367-1.9445 5.2345-1.9445 5.2345h-9.6978L94.555 9.5319c.9717-2.269 2.6261-2.8927 4.8328-2.8927Zm-.5676 12.7297s-2.9151 7.7459-3.676 9.7548h7.6588c-.368-1.7488-2.134-10.0744-2.134-10.0744l-.626-3.0029c-.2417.6786-.577 1.5733-.8358 2.2639-.24.6405-.4143 1.1053-.387 1.0586ZM.1145 6.6008h14.8849c2.0066.086 3.6225.7472 4.1908 2.9512l3.2275 16.0132a.1657.1657 0 0 1 .002.0066l.9632 4.8311 9.0385-23.7755h9.7749L27.6678 41.4306l-9.7652.0121-8.2077-30.2856C6.8574 9.5366 3.6199 8.234 0 7.3315l.1145-.7307Z"/></g></svg>