<svg xmlns="http://www.w3.org/2000/svg" viewBox="0 0 49.0786 37.5664"><g data-name="Layer 2"><g data-name="Layer 1"><path fill="#16a5df" d="M.1695 2.6853.6388 0h12.3837l-.4693 2.6853H7.9387l-2.216 12.6183H2.568L4.784 2.6853Zm11.732 1.3817h2.7895l-.2086 1.1993a4.6597 4.6597 0 0 1 .6779-.73 2.7562 2.7562 0 0 1 .6778-.4432 2.6308 2.6308 0 0 1 .8082-.2085c.2868-.0261.5996-.0522.9907-.0522h.339c.0782.026.1564.026.2346.0522a.509.509 0 0 0 .1825.026l-.4953 2.8157a.887.887 0 0 1-.2607-.026c-.0783-.0261-.1825-.0261-.2868-.0522h-.4172a2.8152 2.8152 0 0 0-1.46.339 2.6962 2.6962 0 0 0-.9385.9385 4.9666 4.9666 0 0 0-.5736 1.4078q-.1955.8212-.391 1.7989l-.73 4.1713H9.92Zm13.4786 10.272a2.49 2.49 0 0 1-.756.6257 3.9227 3.9227 0 0 1-.8864.4171 6.3699 6.3699 0 0 1-1.0168.1825c-.365.0261-.704.0522-1.0428.0522a5.4281 5.4281 0 0 1-1.6947-.2347 2.7172 2.7172 0 0 1-1.121-.782 2.6359 2.6359 0 0 1-.4954-1.3558 6.7336 6.7336 0 0 1 .1825-2.0596l1.2514-7.0913h2.9721l-1.2253 7.0913a2.0084 2.0084 0 0 0 .1564 1.5643 1.908 1.908 0 0 0 1.486.4171 3.8552 3.8552 0 0 0 1.0168-.1303 1.7535 1.7535 0 0 0 .7821-.4172 2.3057 2.3057 0 0 0 .5475-.7821 5.958 5.958 0 0 0 .339-1.2775l1.147-6.4916h2.9721l-1.9813 11.2626h-2.7896Zm7.8213-2.4767a1.1853 1.1853 0 0 0 .4432 1.2253 3.654 3.654 0 0 0 1.7468.3129 6.6352 6.6352 0 0 0 1.121-.0783 2.2263 2.2263 0 0 0 .704-.2346.812.812 0 0 0 .365-.4171 1.2548 1.2548 0 0 0 .1042-.5736.755.755 0 0 0-.2607-.5996 2.5532 2.5532 0 0 0-.8864-.4172l-2.9982-.756a3.1471 3.1471 0 0 1-1.5903-.8864 2.328 2.328 0 0 1-.5736-1.7207 5.064 5.064 0 0 1 .2868-1.7207 2.8961 2.8961 0 0 1 .9386-1.2514 5.0287 5.0287 0 0 1 1.7207-.7821 10.8938 10.8938 0 0 1 2.6592-.2607 8.1004 8.1004 0 0 1 1.851.1825 3.9573 3.9573 0 0 1 1.3817.5996 2.3645 2.3645 0 0 1 .7822 1.095 3.2273 3.2273 0 0 1 .1303 1.6164h-2.7895a1.0414 1.0414 0 0 0-.391-1.0168 2.7317 2.7317 0 0 0-1.434-.2607 6.424 6.424 0 0 0-1.121.0782 2.244 2.244 0 0 0-.6518.2607.6225.6225 0 0 0-.2868.365 1.2197 1.2197 0 0 0-.0521.4432.7038.7038 0 0 0 .2607.5736 1.7864 1.7864 0 0 0 .8082.391l2.6592.6518a4.0525 4.0525 0 0 1 1.9553.9647 2.511 2.511 0 0 1 .6518 1.7728 3.8767 3.8767 0 0 1-.4171 1.9032 3.3199 3.3199 0 0 1-1.1993 1.2774 4.9422 4.9422 0 0 1-1.825.704 13.171 13.171 0 0 1-2.3725.2085 9.4961 9.4961 0 0 1-2.0074-.2085 4.1555 4.1555 0 0 1-1.5382-.6518 2.6956 2.6956 0 0 1-.9386-1.1471 3.2881 3.2881 0 0 1-.1825-1.7207h2.946Zm13.5569-5.3967-.8603 4.8231c-.0782.391-.1304.73-.1564.9646a.8942.8942 0 0 0 .0521.5475.4486.4486 0 0 0 .2868.2868 1.995 1.995 0 0 0 .6518.0782h.2867a.7218.7218 0 0 0 .2346-.026.5741.5741 0 0 0 .2086-.0261l-.4171 2.19c-.2086.026-.4172.0521-.6518.0782a5.127 5.127 0 0 1-.6779.0521c-.2607 0-.5214.0261-.782.0261a3.0581 3.0581 0 0 1-1.5643-.3129 1.3688 1.3688 0 0 1-.6518-.9385 4.0496 4.0496 0 0 1-.0522-1.5121c.0783-.5996.1825-1.2775.2868-2.0335l.7822-4.2235h-1.46l.4171-2.3986h1.486l.4954-2.7896h2.9721l-.4954 2.7896h1.9293l-.4171 2.3985h-1.9032Z"/><path fill="#434444" d="M8.473 17.7264a18.2142 18.2142 0 0 1 2.164.1304 4.2163 4.2163 0 0 1 1.6424.5735 2.9846 2.9846 0 0 1 1.069 1.2514 5.146 5.146 0 0 1 .391 2.19 6.1356 6.1356 0 0 1-.5475 2.7636 4.3617 4.3617 0 0 1-1.486 1.7206 5.801 5.801 0 0 1-2.1379.8864 11.0236 11.0236 0 0 1-2.4507.2607h-2.972l-.9907 5.6053H0l2.6853-15.3819Zm-3.8585 7.0913H6.596c.4432 0 .9125-.026 1.3818-.0521a3.8255 3.8255 0 0 0 1.2514-.2868 2.2617 2.2617 0 0 0 .9125-.8082 2.8055 2.8055 0 0 0 .339-1.5382 2.6528 2.6528 0 0 0-.1304-.8864 1.026 1.026 0 0 0-.4693-.5214 2.5482 2.5482 0 0 0-.8864-.2607 11.5908 11.5908 0 0 0-1.434-.0522h-2.19Zm9.5942.3911a6.1995 6.1995 0 0 1 .73-1.825 3.2938 3.2938 0 0 1 1.121-1.121 4.7879 4.7879 0 0 1 1.5903-.5736 11.7793 11.7793 0 0 1 2.0335-.1825 5.6311 5.6311 0 0 1 3.4153.8082 2.6115 2.6115 0 0 1 .73 2.6853l-1.4078 8.0299h-2.8417l.1564-.8604a4.4366 4.4366 0 0 1-1.4078.7821 6.2457 6.2457 0 0 1-2.2421.339 4.812 4.812 0 0 1-1.486-.1825 2.3538 2.3538 0 0 1-.9908-.5997 1.7167 1.7167 0 0 1-.5214-.8864 3.8824 3.8824 0 0 1-.1825-1.121 3.8154 3.8154 0 0 1 .365-1.7207 3.3949 3.3949 0 0 1 .9125-1.1732 5.0965 5.0965 0 0 1 1.2775-.73 6.809 6.809 0 0 1 1.4339-.365l3.8063-.5736.1304-.6778c.1043-.5214.026-.8864-.2347-1.069a2.6229 2.6229 0 0 0-1.4339-.2867 8.2345 8.2345 0 0 0-.9124.0521 1.7992 1.7992 0 0 0-.5997.2086 1.1159 1.1159 0 0 0-.365.4172 4.8224 4.8224 0 0 0-.2868.6257Zm4.0149 2.9981c-.339.0522-.6518.1304-.9125.1825a3.875 3.875 0 0 0-.73.2868 1.0894 1.0894 0 0 0-.4432.5214 2.1337 2.1337 0 0 0-.1825.8864.9774.9774 0 0 0 .365.7822 1.968 1.968 0 0 0 1.1993.2867 3.0276 3.0276 0 0 0 1.147-.1824 2.0112 2.0112 0 0 0 .7822-.4954 2.364 2.364 0 0 0 .4954-.7821 4.9353 4.9353 0 0 0 .2607-.9386l.1564-.8864Zm10.298-6.4134a41.6592 41.6592 0 0 0 1.0428 8.2123l3.9107-8.2123h3.2588L30.7637 33.056c-.4693.8864-.8864 1.6425-1.2253 2.216a7.0679 7.0679 0 0 1-1.069 1.3818 3.3682 3.3682 0 0 1-1.2513.73 6.436 6.436 0 0 1-1.7207.1825h-.5736c-.1825-.0261-.339-.0261-.4693-.0522-.1564-.026-.2868-.026-.4171-.0521l.4171-2.3203a.3866.3866 0 0 0 .1825.026.3307.3307 0 0 0 .1565.0261h.1825a3.6122 3.6122 0 0 0 .782-.0782 2.2127 2.2127 0 0 0 .678-.2868 2.3861 2.3861 0 0 0 .5735-.6518 6.438 6.438 0 0 0 .5214-1.0428c-.5475-1.9292-.9646-3.8324-1.3035-5.6835-.339-1.825-.5997-3.728-.7822-5.6573Z"/></g></g></svg>