<svg xmlns="http://www.w3.org/2000/svg" id="Layer_1" data-name="Layer 1" viewBox="0 0 140 48"><defs><style>.cls-4{stroke-width:0;fill:#00abee}</style></defs><path fill="#fff" stroke-width="0" d="M7.4638 0h88.0724C99.6584 0 103 3.3579 103 7.5v33c0 4.1421-3.3416 7.5-7.4638 7.5H7.4638C3.3416 48 0 44.6421 0 40.5v-33C0 3.3579 3.3417 0 7.4638 0Z"/><path fill="#b9b5b5" stroke-width="0" d="M58.2174 9h-1.4928v30h1.4928V9Z"/><path fill="#fabd00" stroke-width="0" d="M42.7994 6c-.0043 0-.0087.8498-.0119.8498h-.0044v8.3335c-1.5405-.9273-3.296-1.3997-5.2392-1.3997-1.3592 0-2.624.2291-3.7867.6818-1.28.4986-2.4384 1.2676-3.4675 2.3019-.1456.1473-.2889.2978-.4192.4505a.0497.0497 0 0 1 .0076.0088c1.6523 1.8796 2.4666 4.1607 2.4666 6.7887 0-1.5273.4777-2.7917 1.4125-3.7877.014-.0163.0292-.0316.0445-.0479.9988-1.008 2.2375-1.5164 3.7422-1.5164 1.497 0 2.7314.5084 3.7345 1.5164 1.0032 1.0036 1.5047 2.2843 1.5047 3.8356 0 1.5524-.5015 2.8287-1.5047 3.8367-1.0031 1.0037-2.2375 1.512-3.7345 1.512-1.5047 0-2.7434-.5083-3.7422-1.512-.0153-.0153-.0293-.0317-.0445-.047-.9348-1.0003-1.4125-2.2613-1.4125-3.7897 0 2.628-.8143 4.8545-2.4666 6.7353-.0151.0174-.0303.036-.0466.0534.1411.169.2986.3349.4582.4953 1.0291 1.0353 2.1875 1.7934 3.4675 2.28 1.1627.445 2.4275.6643 3.7867.6643 2.8465 0 5.2794-.9676 7.2455-2.9443 1.9195-1.9277 2.9194-4.296 2.9671-7.08.0076-.0676.0076-.1353.0076-.204V13.7727c0-3.468-2.0344-6.3567-4.9647-7.7727Z"/><path d="M27.3743 24.0111c0 1.5523-.5071 2.8276-1.4701 3.8311-.9986 1.008-2.2375 1.5165-3.742 1.5165a5.632 5.632 0 0 1-.2368-.0045c-1.3906-.0511-2.548-.5574-3.4979-1.512-1.0032-1.0035-1.5047-2.2843-1.5047-3.8355 0-1.5525.5015-2.8288 1.5047-3.8368.9499-.9501 2.1073-1.4564 3.4979-1.5077a5.9944 5.9944 0 0 1 .2368-.0043c1.5045 0 2.7434.5083 3.742 1.512.963 1.008 1.4701 2.2888 1.4701 3.8412 0-2.628.8011-4.859 2.4535-6.7397.0152-.0175.0304-.036.0467-.0535-.1412-.1691-.2986-.3348-.4581-.4952-1.9661-1.9767-4.4002-2.9444-7.2542-2.9444-.0794 0-.1575.0011-.2368.0033-2.7445.0513-5.097 1.0189-7.0099 2.9411-1.9184 1.9275-2.9182 4.296-2.966 7.08-.0076.0675-.0076.1352-.0076.204v10.2425c0 3.468 2.0345 6.3349 4.9646 7.7509.0043 0 .0087-.828.0119-.828h.0044v-8.3334c1.4775.8891 3.1527 1.3604 5.0026 1.3974.0783.0011.1574.0021.2368.0021 2.854 0 5.2881-1.008 7.2542-2.9835.1454-.1473.2887-.2979.419-.4506-.0033-.0033-.0054-.0054-.0076-.0087-1.6524-1.8796-2.4535-4.1563-2.4535-6.7843Z" class="cls-4"/><path fill="#006693" stroke-width="0" d="M32.3514 24.0154c0 2.628-.8141 4.8546-2.4665 6.7353-.0152.0174-.0304.036-.0467.0534-.0033-.0033-.0055-.0054-.0076-.0087-1.6523-1.8796-2.4536-4.1563-2.4536-6.7843s.8013-4.859 2.4536-6.7397c.0152-.0174.0304-.036.0467-.0534.0031.0032.0054.0054.0076.0087 1.6524 1.8797 2.4665 4.1607 2.4665 6.7887Z"/><path d="M86.5796 13.5h-1.4927v-.375c0-.6211-.5015-1.125-1.1196-1.125s-1.1196.5039-1.1196 1.125v.375H75.384v-.375c0-.6211-.5015-1.125-1.1196-1.125s-1.1196.5039-1.1196 1.125v.375H71.652c-2.4695 0-4.4783 2.0186-4.4783 4.5v13.5c0 2.4814 2.0088 4.5 4.4783 4.5h14.9275c2.4695 0 4.4783-2.0186 4.4783-4.5V18c0-2.4814-2.0088-4.5-4.4783-4.5Zm2.2392 18c0 1.2407-1.0044 2.25-2.2392 2.25H71.6521c-1.2347 0-2.2391-1.0093-2.2391-2.25v-9.75h19.4058v9.75Zm-19.4058-12V18c0-1.2407 1.0044-2.25 2.2391-2.25h1.4927v1.125c0 .6211.5015 1.125 1.1196 1.125s1.1196-.5039 1.1196-1.125V15.75h7.4637v1.125c0 .6211.5015 1.125 1.1196 1.125s1.1196-.5039 1.1196-1.125V15.75h1.4927c1.2348 0 2.2392 1.0093 2.2392 2.25v1.5H69.413Z" class="cls-4"/><path d="M73.1449 30c1.2366 0 2.2391-1.0074 2.2391-2.25s-1.0025-2.25-2.2391-2.25-2.2391 1.0074-2.2391 2.25S71.9083 30 73.1449 30Zm5.9712 0c1.2366 0 2.2391-1.0074 2.2391-2.25s-1.0025-2.25-2.2391-2.25c-1.2367 0-2.2391 1.0074-2.2391 2.25S77.8794 30 79.1161 30Zm5.9707 0c1.2366 0 2.2391-1.0074 2.2391-2.25s-1.0025-2.25-2.2391-2.25c-1.2367 0-2.2391 1.0074-2.2391 2.25S83.8501 30 85.0868 30Z" class="cls-4"/></svg>