<svg xmlns="http://www.w3.org/2000/svg" fill="none" viewBox="0 0 101 44"><path fill="#009FE4" d="M74.3186 20.767c4.1853-.0777 7.5152-3.5334 7.4375-7.7187-.0776-4.1853-3.5334-7.5151-7.7187-7.4375-4.1852.0776-7.5151 3.5334-7.4375 7.7187.0777 4.1853 3.5335 7.5151 7.7187 7.4375Z"/><path fill="#009FE4" d="M79.7684 19.3208a9.9617 9.9617 0 0 1-7.2578 3.1309 10.059 10.059 0 0 1-6.106-2.0802c-8.2749.8684-14.429 2.099-14.429 2.099v3.3508l43.899-.0048v-6.9083s-7.5218-.0466-16.1062.4126Z"/><path fill="#003664" d="M95.8746 39.2519a15.664 15.664 0 0 1-4.2953.5977c-5.1593 0-8.947-1.4664-8.947-5.7313 0-3.8541 3.6713-5.5287 8.6899-5.5287a16.0547 16.0547 0 0 1 4.5524.5965l-.0018 3.7331a6.341 6.341 0 0 0-3.5251-1.0098c-1.9142 0-3.8271.9425-3.8271 2.3109 0 1.3717 1.9045 2.3111 3.8271 2.3111a6.6386 6.6386 0 0 0 3.5251-.9942l.0018 3.7147Zm-30.6634 0a15.664 15.664 0 0 1-4.2953.5977c-5.1592 0-8.947-1.4664-8.947-5.7313 0-3.8541 3.6713-5.5287 8.6899-5.5287a16.0547 16.0547 0 0 1 4.5524.5965l-.0018 3.7331a6.341 6.341 0 0 0-3.5251-1.0098c-1.9142 0-3.8271.9425-3.8271 2.3109 0 1.3717 1.9045 2.3111 3.8271 2.3111a6.6383 6.6383 0 0 0 3.5251-.9942l.0018 3.7147Zm2.1855-10.4125h10.5416c2.7383 0 3.6357 1.0649 3.6357 2.7227 0 1.8557-1.6583 2.6621-3.3618 2.7531v.0306c1.7491.137 3.453.3345 3.453 2.525 0 1.4301-.8976 2.8296-3.9095 2.8296h-10.359v-10.861Zm5.2147 8.653h2.719c1.0191 0 1.3664-.4219 1.3664-1.0453 0-.6237-.3508-1.0717-1.3548-1.0717h-2.7309l.0003 2.117Zm0-4.0501h2.5973c1.0039 0 1.397-.4066 1.397-1.0303 0-.7148-.3966-1.0715-1.3244-1.0715h-2.6702l.0003 2.1018Z"/><path fill="#00AEEF" d="M27.6942 20.4936c4.2782 0 7.7468-3.4675 7.7468-7.7468C35.441 8.4686 31.9724 5 27.6942 5c-4.2783 0-7.7469 3.4686-7.7469 7.7468 0 4.2793 3.4686 7.7468 7.7469 7.7468Zm5.7138-1.4795c-1.4764 1.601-4.0791 3.2-7.419 3.2-2.5915 0-4.8215-1.0068-6.2408-2.1259C11.2908 20.9756 5 22.2345 5 22.2345v3.4257l44.8706-.0051v-7.0627s-7.6886-.047-16.4626.4217"/><path fill="#003768" d="M10.3299 35.6748v4.1731H5V28.7458h5.3299v4.9961h.0307l3.1367-4.9961h6.3918l-4.6795 5.7374 4.4151 5.3647h-6.0988l-3.1602-4.1731h-.0368.001Zm39.5438 3.7146c-1.2569.3839-2.9111.6106-4.3906.6106-5.2728 0-9.1457-1.4989-9.1457-5.8589 0-3.9402 3.7535-5.6515 8.8843-5.6515 1.4254 0 3.2358.1582 4.652.6095l-.0021 3.8168c-1.0496-.6372-2.0993-1.0313-3.6033-1.0313-1.9564 0-3.9117.9629-3.9117 2.3617 0 1.4019 1.9462 2.3617 3.9117 2.3617 1.4785 0 2.5537-.4094 3.6033-1.0149l.0021 3.7953M20.7632 28.7458h10.7752c2.7998 0 3.7167 1.0885 3.7167 2.7824 0 1.8972-1.696 2.7212-3.4359 2.8141v.0316c1.7889.1389 3.5288.3421 3.5288 2.5813 0 1.4611-.9169 2.8927-3.9964 2.8927H20.7621V28.7458h.0011Zm5.3309 8.8455h2.7794c1.0415 0 1.3968-.4329 1.3968-1.0701 0-.6381-.3594-1.0945-1.3846-1.0945h-2.7916v2.1646Zm0-4.1404h2.6558c1.0262 0 1.4275-.4156 1.4275-1.0527 0-.7311-.4054-1.0956-1.3529-1.0956h-2.7293v2.1493l-.0011-.001Z"/></svg>