<svg xmlns="http://www.w3.org/2000/svg" fill="none" viewBox="0 0 120 80"><rect width="120" height="80" fill="#fff" rx="4"/><path fill="#1677FF" d="M110.001 42.4599h-9.128c-1.2064 0-2.3633-.4699-3.2163-1.3063-.853-.8364-1.3322-1.9708-1.3322-3.1536h11.4795c.288-.0002.574.0554.84.1634.267.1081.509.2666.713.4664.204.1999.366.4371.477.6983.11.2612.167.5412.167.824v2.3078Z"/><path fill="#00B6FF" d="M87.1978 38h6.9145v4.4599h-4.7147c-.5824 0-1.141-.2269-1.5528-.6307-.4119-.4038-.6432-.9515-.6432-1.5226v-2.3115L87.1978 38Z"/><path fill="#1677FF" d="M100.871 31.2032v11.2554a4.625 4.625 0 0 1-1.741-.3383 4.5552 4.5552 0 0 1-1.4767-.9662 4.4563 4.4563 0 0 1-.987-1.4469A4.3851 4.3851 0 0 1 96.3193 38v-8.9477h2.3574c.5818.0003 1.1396.227 1.5503.6303.412.4032.643.9501.644 1.5206Z"/><path fill="#00B6FF" d="M100.872 44.6472v6.7604h-2.3566c-.5824 0-1.141-.2269-1.5529-.6307-.4118-.4038-.6432-.9515-.6432-1.5226v-4.6071h4.5527Z"/><path fill="#3E3A39" d="M28.47 29.0487v18.2104h4.0199V29.0487H28.47ZM9.9995 47.2591h3.7147l1.0174-3.4428h6.3859l.9665 3.4428h4.7569l-5.4182-17.5863h-5.3933L9.9995 47.2591Zm5.572-6.3114 2.3909-8.1071h.1017l2.2643 8.1071h-4.7569Zm32.7424 6.4854c3.5869 0 6.8177-2.5937 6.8177-7.2092 0-4.1363-2.34-6.6095-5.2408-6.6095-1.4752 0-2.6204.5486-3.9182 1.5961v-1.3224H41.954V51.5h4.0186v-4.3662a8.8477 8.8477 0 0 0 2.3413.2993Zm16.3587-.174h4.0199l-.4838-3.343v-5.5876c0-3.0414-1.8313-4.7141-5.0634-4.7141-2.0596 0-3.4851.3491-6.0795 1.1216l.7122 3.0682c2.366-1.0475 3.4095-1.4964 4.5025-1.4964 1.3239 0 1.9083.9234 1.9083 2.3455v.0998c-4.6043.8515-6.0299 1.3211-6.9195 2.1897-.6613.6485-.9417 1.5718-.9417 2.6448 0 2.5693 2.0348 3.9404 3.943 3.9404 1.4256 0 2.5695-.5231 4.1216-1.6703l.2804 1.3966v.0048Zm-29.4358-13.371v13.371h4.0199v-13.371h-4.0199Zm47.2946.0255.0261-.0255h-3.7904l-2.3896 8.1326h-.1241l-2.7531-8.1326h-4.5026l5.4182 13.4209-2.2643 4.0913V51.5h3.5373l6.8425-17.5864Zm-34.1667 2.7689c1.5013 0 2.6961 1.1715 2.6961 3.6667 0 3.1934-1.7544 4.6143-3.7134 4.6143a4.4813 4.4813 0 0 1-1.3748-.1995v-7.2336c.84-.5742 1.5274-.8516 2.3921-.8516v.0037Zm11.855 6.5109c0-.3747.0769-.7493.3822-1.0486.4838-.4733 1.4243-.8224 3.5869-1.3212v3.1922c-1.0683.5742-1.6787.7981-2.3909.7981-.9677 0-1.5782-.6229-1.5782-1.6205Z"/><path fill="#1677FF" d="M34.9377 30.6703c0 1.2969.9665 2.1703 2.3151 2.1703 1.3487 0 2.3152-.8734 2.3152-2.1703-.0062-1.2725-.9727-2.1703-2.3214-2.1703-1.3486 0-2.3089.8978-2.3089 2.1703Z"/></svg>