<svg xmlns="http://www.w3.org/2000/svg" xml:space="preserve" viewBox="0 0 74.5 18"><path fill="#18799f" d="M8.5 11.7H4.1V9h4.2V7.7H4.1V5.2h4.4V3.9H2.7V13h5.8v-1.3zm5.7-1.7V8.7H10V10h4.2zm2.9 3L19 3.8h-1.4L15.7 13h1.4zm1.8 0h1.4l.9-4.2c.2-.9.9-1.6 1.9-1.6.8 0 1.3.5 1.3 1.3 0 .2 0 .4-.1.6l-.9 3.9h1.4l.9-4.2c.1-.3.1-.6.1-.8 0-1.1-.8-2-2.1-2-1 0-1.7.5-2.1 1.2h-.1l.2-1.1h-1.3L18.9 13zM27 6.1l1 6.9h1.5l3.9-6.9h-1.5l-2.8 5.3H29l-.7-5.3H27zm7.7 4c0-1.7.9-2.9 2.2-2.9 1 0 1.6.7 1.6 1.9 0 1.6-1 2.8-2.2 2.8-.9 0-1.6-.7-1.6-1.8zm1.5 3c2.2 0 3.7-1.8 3.7-4.3C40 7.1 38.8 6 37.1 6c-2.2 0-3.7 1.8-3.7 4.2-.1 1.8 1.1 2.9 2.8 2.9zm4.4-.1H42l1.5-6.9H42L40.6 13zm2.6-8.1c.5 0 .8-.4.8-.9s-.4-.8-.9-.8-.9.4-.9.8c.1.5.5.9 1 .9zm7.3 3.4V8c-.2-1.1-1.3-2-2.8-2-2.1 0-3.7 1.8-3.7 4.2 0 1.8 1.1 2.9 2.9 2.9 1.6 0 2.8-1 3.1-2.3h-1.4c-.2.7-.8 1-1.6 1-.9 0-1.6-.7-1.6-1.8 0-1.6.9-2.9 2.2-2.9.8 0 1.4.5 1.5 1.1l1.4.1zm.3 4.7h1.4l1.5-6.9h-1.4L50.8 13zm2.6-8.1c.5 0 .9-.4.9-.8 0-.5-.4-.8-.9-.8s-.9.4-.9.8.4.8.9.8zm.5 8.1h1.4l.9-4.2c.1-.9.8-1.6 1.8-1.6.8 0 1.3.5 1.3 1.3 0 .2 0 .4-.1.6l-.8 3.9h1.4l.9-4.2c.1-.3.1-.6.1-.8 0-1.1-.8-2-2.1-2-1 0-1.7.5-2.1 1.2h-.1l.2-1.1h-1.3L53.9 13zM64 15.6c1.8 0 3.1-.9 3.4-2.3L69 6.1h-1.3l-.3 1.2h-.1C67 6.5 66.1 6 65.2 6c-1.9 0-3.4 1.8-3.4 4.2 0 1.6 1.1 2.7 2.5 2.7.9 0 1.6-.3 2.1-1h.1l-.3 1.2c-.2.8-.8 1.4-1.9 1.4-1 0-1.5-.4-1.6-.9h-1.4c-.1 1.1 1 2 2.7 2zm.7-3.8c-1 0-1.6-.7-1.6-1.8 0-1.7.9-2.8 2.2-2.8 1 0 1.6.7 1.6 1.7.1 1.7-.9 2.9-2.2 2.9z"/></svg>